<svg xmlns="http://www.w3.org/2000/svg" viewBox="0 0 64 64" role="img" aria-label="Termwise">
  <rect width="64" height="64" rx="14" fill="#2A241C"/>
  <path fill="#F4EFE4" d="M12 10h31l9 9v29.5A6.5 6.5 0 0 1 45.5 55h-27A6.5 6.5 0 0 1 12 48.5V16.5A6.5 6.5 0 0 1 18.5 10z"/>
  <path fill="#C9BDA3" d="M43 10v8.2c0 1.3 1.1 2.3 2.4 2.3H52L43 10z"/>
  <rect x="18" y="21" width="26" height="6.5" rx="1.2" fill="#2A241C"/>
  <rect x="28.75" y="21" width="6.5" height="21" rx="1.2" fill="#2A241C"/>
  <rect x="18" y="46" width="26" height="2" rx="1" fill="#C9BDA3"/>
  <rect x="18" y="50.5" width="16" height="2" rx="1" fill="#C9BDA3"/>
</svg>
